<?xml version="1.0" encoding="UTF-8" standalone="no"?><svg width="184" height="24" viewBox="0 0 184 24" fill="none" xmlns="http://www.w3.org/2000/svg">
<path opacity="0.1" d="M0.896307 23V1.18182H5.50923V19.1967H14.8629V23H0.896307ZM38.3377 1.18182H42.9506V15.3509C42.9506 16.9418 42.5707 18.3338 41.8107 19.527C41.0579 20.7202 40.0032 21.6506 38.6467 22.3182C37.2901 22.9787 35.7099 23.3089 33.9059 23.3089C32.0948 23.3089 30.511 22.9787 29.1545 22.3182C27.7979 21.6506 26.7433 20.7202 25.9904 19.527C25.2376 18.3338 24.8612 16.9418 24.8612 15.3509V1.18182H29.4741V14.9567C29.4741 15.7876 29.6552 16.5263 30.0174 17.1726C30.3867 17.8189 30.9052 18.3267 31.5728 18.696C32.2404 19.0653 33.0181 19.25 33.9059 19.25C34.8008 19.25 35.5785 19.0653 36.239 18.696C36.9066 18.3267 37.4215 17.8189 37.7837 17.1726C38.1531 16.5263 38.3377 15.7876 38.3377 14.9567V1.18182ZM58.0146 1.18182L62.4144 8.6179H62.5849L67.006 1.18182H72.2156L65.5572 12.0909L72.3647 23H67.0593L62.5849 15.5533H62.4144L57.94 23H52.6559L59.4847 12.0909L52.7837 1.18182H58.0146ZM89.0213 23V1.18182H93.6342V19.1967H102.988V23H89.0213ZM112.986 23V1.18182H127.688V4.98508H117.599V10.1839H126.931V13.9872H117.599V19.1967H127.73V23H112.986ZM156.548 1.18182V23H152.564L143.071 9.26776H142.912V23H138.299V1.18182H142.347L151.765 14.9034H151.956V1.18182H156.548ZM179.138 7.45668C179.053 6.5973 178.688 5.92969 178.041 5.45383C177.395 4.97798 176.518 4.74006 175.41 4.74006C174.657 4.74006 174.021 4.84659 173.503 5.05966C172.984 5.26562 172.587 5.55327 172.31 5.92258C172.04 6.2919 171.905 6.71094 171.905 7.17969C171.891 7.57031 171.972 7.91122 172.15 8.20241C172.335 8.49361 172.587 8.74574 172.906 8.95881C173.226 9.16477 173.595 9.34588 174.014 9.50213C174.433 9.65128 174.881 9.77912 175.357 9.88565L177.317 10.3544C178.268 10.5675 179.142 10.8516 179.938 11.2067C180.733 11.5618 181.422 11.9986 182.004 12.517C182.587 13.0355 183.038 13.6463 183.357 14.3494C183.684 15.0526 183.851 15.8587 183.858 16.7678C183.851 18.103 183.51 19.2607 182.835 20.2408C182.168 21.2138 181.202 21.9702 179.938 22.5099C178.68 23.0426 177.164 23.3089 175.388 23.3089C173.627 23.3089 172.093 23.0391 170.786 22.4993C169.487 21.9595 168.471 21.1605 167.739 20.1023C167.015 19.0369 166.635 17.7195 166.599 16.1499H171.063C171.113 16.8814 171.322 17.4922 171.692 17.9822C172.068 18.4652 172.569 18.831 173.194 19.0795C173.826 19.321 174.54 19.4418 175.335 19.4418C176.116 19.4418 176.795 19.3281 177.37 19.1009C177.952 18.8736 178.403 18.5575 178.723 18.1527C179.043 17.7479 179.202 17.2827 179.202 16.7571C179.202 16.267 179.057 15.8551 178.766 15.5213C178.482 15.1875 178.063 14.9034 177.509 14.669C176.962 14.4347 176.29 14.2216 175.495 14.0298L173.119 13.4332C171.28 12.9858 169.827 12.2862 168.762 11.3345C167.697 10.3828 167.168 9.10085 167.175 7.48864C167.168 6.16761 167.519 5.01349 168.229 4.02628C168.947 3.03906 169.93 2.26847 171.18 1.71449C172.43 1.16051 173.851 0.883522 175.442 0.883522C177.061 0.883522 178.474 1.16051 179.682 1.71449C180.896 2.26847 181.841 3.03906 182.516 4.02628C183.19 5.01349 183.538 6.15696 183.56 7.45668H179.138Z" fill="black"/>
</svg>
